<?xml version="1.0" encoding="utf-8"?><!DOCTYPE svg PUBLIC "-//W3C//DTD SVG 1.1//EN" "http://www.w3.org/Graphics/SVG/1.1/DTD/svg11.dtd"><svg version="1.1" baseProfile="full" xmlns="http://www.w3.org/2000/svg" xmlns:xlink="http://www.w3.org/1999/xlink" xmlns:ev="http://www.w3.org/2001/xml-events" height="30.6px" width="29.9px" ><path fill="rgb( 255, 255, 255 )" d="M27.9939999999999,15.02 C27.9939999999999,15.02 14.6329999999999,15.02 14.6329999999999,15.02 C14.6329999999999,15.02 14.6329999999999,28.734 14.6329999999999,28.734 C14.6329999999999,28.734 13.361,28.734 13.361,28.734 C13.361,28.734 13.361,15.02 13.361,15.02 C13.361,15.02 0,15.02 0,15.02 C0,15.02 0,13.714 0,13.714 C0,13.714 13.361,13.714 13.361,13.714 C13.361,13.714 13.361,0 13.361,0 C13.361,0 14.6329999999999,0 14.6329999999999,0 C14.6329999999999,0 14.6329999999999,13.714 14.6329999999999,13.714 C14.6329999999999,13.714 27.9939999999999,13.714 27.9939999999999,13.714 C27.9939999999999,13.714 27.9939999999999,15.02 27.9939999999999,15.02 Z "/></svg>